<svg xmlns="http://www.w3.org/2000/svg" version="1.1" xmlns:xlink="http://www.w3.org/1999/xlink" width="512" height="512" x="0" y="0" viewBox="0 0 8.467 8.467" style="enable-background:new 0 0 512 512" xml:space="preserve" class=""><g><path d="M4.867.053 1.762 2.381H.404A.41.41 0 0 0 0 2.785v2.896c0 .22.179.405.404.405h1.358l3.105 2.327a.265.265 0 0 0 .424-.213V.264c0-.208-.245-.345-.424-.21zm-.105.74v6.88L2.115 5.688V2.777zm1.602 1.084c-.304-.037-.405.476-.048.528.935.135 1.621.91 1.621 1.827 0 .918-.686 1.698-1.62 1.83-.349.035-.272.588.074.524 1.186-.168 2.076-1.171 2.076-2.354 0-1.323-1.056-2.237-2.103-2.355zM.53 2.91h1.057l.001 2.646H.529zm5.739.72a.637.637 0 0 1 .437.602c0 .27-.174.514-.44.606-.342.105-.15.626.176.5.473-.164.793-.609.793-1.106 0-.504-.324-.941-.797-1.105-.357-.096-.487.379-.17.503z" fill="#6588a6" opacity="1" data-original="#000000" class=""></path></g></svg>