<svg xmlns="http://www.w3.org/2000/svg" version="1.1" xmlns:xlink="http://www.w3.org/1999/xlink" width="512" height="512" x="0" y="0" viewBox="0 0 682.667 682.667" style="enable-background:new 0 0 512 512" xml:space="preserve" class=""><g><defs><clipPath id="a" clipPathUnits="userSpaceOnUse"><path d="M0 512h512V0H0Z" fill="#6588a6" opacity="1" data-original="#000000"></path></clipPath></defs><g clip-path="url(#a)" transform="matrix(1.33333 0 0 -1.33333 0 682.667)"><path d="M0 0h-233.776c-5.129 0-9.409-3.883-9.939-8.984-4.226-40.6-36.774-72.866-77.716-77.031-5.108-.52-9-4.806-9-9.941V-207.82c0-134.471 88.267-248.512 210.475-288.201a9.941 9.941 0 0 1 6.136 0C8.388-456.332 96.655-342.291 96.655-207.82v111.864c0 5.135-3.892 9.421-9.001 9.941C46.712-81.85 14.165-49.584 9.939-8.984 9.408-3.883 5.128 0 0 0Z" style="stroke-width:15;stroke-linecap:round;stroke-linejoin:round;stroke-miterlimit:10;stroke-dasharray:none;stroke-opacity:1" transform="translate(372.888 504.5)" fill="none" stroke="#6588a6" stroke-width="15" stroke-linecap="round" stroke-linejoin="round" stroke-miterlimit="10" stroke-dasharray="none" stroke-opacity="" data-original="#000000" opacity="1" class=""></path><path d="M0 0c-29.363-33.179-66.996-59.004-108.498-74.363a4.037 4.037 0 0 0-2.8 0c-48.126 17.811-91.05 49.695-121.909 90.801-34.655 46.163-52.973 101.084-52.973 158.829v87.138c0 1.732 1.122 3.248 2.763 3.802 36.476 12.321 65.391 41 77.814 77.178.561 1.632 2.071 2.744 3.796 2.744h183.818c1.725 0 3.236-1.112 3.796-2.744 12.423-36.178 41.339-64.857 77.814-77.178 1.641-.554 2.763-2.07 2.763-3.802v-87.138c0-52.898-15.372-103.427-44.593-147.024" style="stroke-width:15;stroke-linecap:round;stroke-linejoin:round;stroke-miterlimit:10;stroke-dasharray:none;stroke-opacity:1" transform="translate(365.898 121.414)" fill="none" stroke="#6588a6" stroke-width="15" stroke-linecap="round" stroke-linejoin="round" stroke-miterlimit="10" stroke-dasharray="none" stroke-opacity="" data-original="#000000" opacity="1" class=""></path><path d="M0 0v46.44c0 43.72-35.57 79.29-79.29 79.29a78.824 78.824 0 0 1-42.494-12.374m-24.668-24.81A78.824 78.824 0 0 1-158.58 46.44V0m30 2.01v44.43c0 27.23 22.07 49.29 49.29 49.29 13.61 0 25.93-5.52 34.85-14.43C-35.52 72.38-30 60.05-30 46.44V2.01" style="stroke-width:15;stroke-linecap:round;stroke-linejoin:round;stroke-miterlimit:10;stroke-dasharray:none;stroke-opacity:1" transform="translate(335.29 300.63)" fill="none" stroke="#6588a6" stroke-width="15" stroke-linecap="round" stroke-linejoin="round" stroke-miterlimit="10" stroke-dasharray="none" stroke-opacity="" data-original="#000000" opacity="1" class=""></path><path d="M0 0h-137c-16.568 0-30 13.432-30 30v87c0 16.569 13.432 30 30 30H0c16.568 0 30-13.431 30-30V30C30 13.432 16.568 0 0 0Z" style="stroke-width:15;stroke-linecap:round;stroke-linejoin:round;stroke-miterlimit:10;stroke-dasharray:none;stroke-opacity:1" transform="translate(324.5 155.635)" fill="none" stroke="#6588a6" stroke-width="15" stroke-linecap="round" stroke-linejoin="round" stroke-miterlimit="10" stroke-dasharray="none" stroke-opacity="" data-original="#000000" opacity="1" class=""></path><path d="M0 0c0 11.15-9.357 20.114-20.647 19.467-9.56-.547-17.443-8.176-18.276-17.716-.436-4.982 1.008-9.616 3.697-13.278a3.87 3.87 0 0 0 .726-2.293v-20.766c0-8.285 6.716-15 15-15 8.284 0 15 6.715 15 15v20.765c0 .819.237 1.629.722 2.288A19.406 19.406 0 0 1 0 0Z" style="stroke-width:15;stroke-linecap:round;stroke-linejoin:round;stroke-miterlimit:10;stroke-dasharray:none;stroke-opacity:1" transform="translate(275.5 244.178)" fill="none" stroke="#6588a6" stroke-width="15" stroke-linecap="round" stroke-linejoin="round" stroke-miterlimit="10" stroke-dasharray="none" stroke-opacity="" data-original="#000000" opacity="1" class=""></path></g></g></svg>