<svg xmlns="http://www.w3.org/2000/svg" version="1.0" width="528.000000pt" height="537.000000pt" viewBox="0 0 528.000000 537.000000" preserveAspectRatio="xMidYMid meet">

<g transform="translate(0.000000,537.000000) scale(0.100000,-0.100000)" fill="#000000" stroke="none">
<path d="M95 4410 c-22 -11 -51 -36 -65 -57 l-25 -37 0 -1506 0 -1506 25 -37 c14 -21 43 -46 66 -57 40 -20 67 -20 2464 -20 2397 0 2424 0 2464 20 23 11 52 36 66 57 l25 37 0 1506 0 1506 -25 37 c-14 21 -43 46 -66 57 -40 20 -67 20 -2465 20 -2401 0 -2424 0 -2464 -20z m587 -296 c3 -146 3 -146 31 -170 36 -31 77 -31 111 1 26 24 26 25 26 170 l0 145 84 0 84 0 4 -146 c3 -146 3 -146 31 -170 37 -31 81 -31 112 1 24 23 25 28 25 170 l0 145 90 0 90 0 0 -145 c0 -142 1 -147 25 -170 31 -32 75 -32 112 -1 28 24 28 24 31 170 l4 146 84 0 84 0 0 -145 c0 -145 0 -146 26 -170 34 -32 75 -32 111 -1 28 24 28 24 31 170 l3 146 85 0 84 0 0 -143 c0 -130 2 -145 20 -165 28 -30 68 -38 99 -21 43 24 51 53 51 197 l0 132 85 0 85 0 0 -135 c0 -144 8 -176 47 -194 39 -18 63 -13 94 18 l29 29 0 141 0 141 85 0 85 0 0 -141 0 -141 29 -29 c31 -31 59 -36 94 -17 43 22 46 37 47 186 l0 142 1025 0 1025 0 0 -1450 0 -1450 -2390 0 -2390 0 0 1450 0 1450 254 0 255 0 3 -146z"/>
<path d="M376 4068 c-15 -13 -29 -37 -32 -55 -5 -27 -1 -37 24 -63 39 -38 83 -40 117 -5 75 74 -31 192 -109 123z"/>
<path d="M4655 4078 c-51 -29 -61 -93 -20 -133 31 -32 75 -32 111 -1 73 63 -8 182 -91 134z"/>
<path d="M517 3734 c-31 -10 -65 -31 -97 -62 -62 -61 -80 -118 -80 -259 0 -146 17 -172 113 -173 l57 0 0 -430 0 -430 -57 0 c-96 -1 -113 -27 -113 -173 0 -141 18 -198 80 -259 88 -85 -99 -78 2140 -78 2239 0 2052 -7 2140 78 62 61 80 118 80 259 0 146 -17 172 -112 173 l-58 0 0 430 0 430 58 0 c95 1 112 27 112 173 0 141 -18 198 -80 259 -88 85 99 78 -2144 77 -1725 0 -1997 -2 -2039 -15z m4065 -181 c16 -17 23 -37 26 -81 l4 -59 -61 -5 c-46 -3 -67 -10 -86 -28 l-25 -23 0 -547 0 -547 25 -23 c19 -18 40 -25 86 -28 l61 -5 -4 -59 c-3 -44 -10 -64 -26 -81 l-23 -22 -1999 0 -1999 0 -23 22 c-16 17 -23 37 -26 81 l-4 59 61 5 c46 3 67 10 86 28 l25 23 0 547 0 547 -25 23 c-19 18 -40 25 -85 28 l-60 4 0 47 c0 55 17 91 50 108 20 10 431 12 2012 10 l1987 -2 23 -22z"/>
<path d="M904 3396 c-20 -9 -35 -25 -43 -46 -8 -23 -11 -188 -11 -542 0 -564 0 -566 60 -587 24 -8 470 -11 1652 -11 1780 0 1674 -4 1697 60 16 46 16 1034 0 1080 -23 64 83 60 -1701 60 -1344 -1 -1628 -3 -1654 -14z m3191 -586 l0 -425 -1535 0 -1535 0 -3 415 c-1 228 0 421 3 428 3 10 316 12 1537 10 l1533 -3 0 -425z"/>
<path d="M1263 2997 c-55 -55 -63 -69 -63 -101 0 -48 36 -86 81 -86 27 0 45 12 101 68 56 56 68 74 68 101 0 45 -38 81 -86 81 -32 0 -46 -8 -101 -63z"/>
<path d="M1562 2867 c-177 -178 -192 -195 -192 -228 0 -54 39 -84 104 -80 25 1 375 347 392 388 10 24 11 39 3 62 -13 37 -35 51 -81 51 -30 0 -53 -20 -226 -193z"/>
<path d="M376 1678 c-15 -13 -29 -37 -32 -55 -5 -27 -1 -37 24 -63 32 -32 60 -37 95 -18 32 17 46 39 46 73 0 72 -80 109 -133 63z"/>
<path d="M4655 1688 c-31 -18 -44 -40 -44 -73 0 -34 14 -56 46 -73 33 -18 59 -14 89 12 73 63 -8 182 -91 134z"/>
</g>
</svg>