<svg xmlns="http://www.w3.org/2000/svg" version="1.0" width="528.000000pt" height="537.000000pt" viewBox="0 0 528.000000 537.000000" preserveAspectRatio="xMidYMid meet">

<g transform="translate(0.000000,537.000000) scale(0.100000,-0.100000)" fill="#000000" stroke="none">
<path d="M1500 5082 c-52 -26 -59 -57 -59 -284 l-1 -196 -157 -4 c-148 -3 -162 -5 -217 -31 -117 -54 -190 -137 -227 -258 -15 -47 -19 -91 -19 -195 l0 -134 -204 0 c-113 0 -216 -4 -229 -9 -85 -33 -91 -148 -10 -190 14 -7 97 -11 232 -11 l211 0 0 -100 0 -100 -221 0 -221 0 -29 -29 c-41 -41 -41 -101 0 -142 l29 -29 221 0 221 0 0 -95 0 -95 -210 0 c-264 0 -290 -10 -290 -107 0 -31 7 -46 31 -69 l30 -29 220 -3 219 -3 0 -100 0 -99 -210 0 c-264 0 -290 -10 -290 -107 0 -31 7 -46 31 -69 l30 -29 220 -3 219 -4 0 -98 0 -98 -219 -4 -220 -3 -30 -29 c-24 -23 -31 -38 -31 -69 0 -97 26 -107 290 -107 l210 0 0 -99 0 -100 -226 -3 -226 -3 -24 -28 c-33 -38 -33 -96 0 -134 l24 -28 224 -5 223 -5 6 -155 c7 -190 23 -241 105 -330 103 -110 185 -140 386 -140 l128 0 0 -200 c0 -216 7 -253 51 -284 40 -27 86 -21 125 18 l34 34 0 216 0 216 100 0 100 0 0 -210 c0 -233 5 -257 59 -280 42 -17 95 -5 121 27 19 24 20 39 20 244 l0 219 105 0 105 0 0 -205 c0 -163 3 -212 15 -235 34 -66 103 -79 157 -31 l33 29 3 221 3 221 99 0 99 0 3 -221 3 -221 33 -29 c44 -39 90 -39 134 0 l33 29 3 221 3 221 95 0 94 0 0 -219 c0 -205 1 -220 20 -244 26 -32 79 -44 121 -27 54 23 59 47 59 280 l0 210 100 0 100 0 0 -216 0 -216 34 -34 c39 -39 85 -45 125 -18 44 31 51 68 51 283 l0 199 153 4 c124 4 162 8 205 25 102 41 195 133 234 233 17 44 22 85 27 210 l6 155 216 3 216 2 27 29 c48 50 32 138 -30 161 -14 6 -117 10 -230 10 l-204 0 0 100 0 100 208 0 c188 0 210 2 239 20 54 33 62 108 17 154 -33 33 -59 36 -275 36 l-189 0 0 100 0 100 189 0 c216 0 242 3 275 36 32 33 38 71 18 114 -27 56 -44 60 -274 60 l-208 0 0 100 0 100 189 0 c216 0 242 3 275 36 45 46 37 121 -17 154 -29 18 -51 20 -239 20 l-208 0 0 95 0 95 214 0 c214 0 215 0 244 25 35 30 45 69 27 111 -25 61 -37 64 -272 64 l-213 0 0 100 0 100 205 0 c220 0 251 6 276 51 14 28 14 81 -1 109 -23 42 -65 50 -280 50 l-200 0 0 134 c0 163 -19 235 -83 323 -47 62 -93 99 -172 135 -44 20 -69 23 -207 26 l-157 4 -3 212 c-3 241 -8 256 -77 277 -34 10 -44 9 -73 -8 -54 -32 -58 -47 -58 -275 l0 -208 -100 0 -100 0 0 213 c0 233 -2 242 -61 273 -38 19 -79 11 -113 -23 l-26 -25 -2 -217 -3 -216 -92 -3 -93 -3 0 208 c0 187 -2 211 -19 239 -42 69 -146 63 -176 -10 -12 -27 -15 -82 -15 -236 l0 -200 -100 0 -100 0 0 208 c0 186 -2 210 -19 238 -42 69 -146 63 -176 -10 -12 -27 -15 -82 -15 -236 l0 -201 -102 3 -103 3 -2 210 c-2 134 -7 218 -14 232 -17 31 -73 56 -109 48 -16 -4 -41 -20 -55 -37 l-25 -30 0 -214 0 -214 -100 0 -100 0 0 204 c0 113 -4 216 -10 230 -10 27 -64 66 -90 66 -8 0 -31 -8 -50 -18z m2490 -712 c28 -16 55 -43 75 -74 l30 -49 0 -1386 c0 -1530 5 -1408 -62 -1475 -58 -59 27 -56 -1473 -56 -1500 0 -1415 -3 -1473 56 -67 67 -62 -55 -62 1474 l0 1385 25 44 c14 24 37 53 51 63 66 49 11 47 1474 45 l1370 -2 45 -25z"/>
</g>
</svg>