<svg xmlns="http://www.w3.org/2000/svg" version="1.0" width="528.000000pt" height="537.000000pt" viewBox="0 0 528.000000 537.000000" preserveAspectRatio="xMidYMid meet">

<g transform="translate(0.000000,537.000000) scale(0.100000,-0.100000)" fill="#000000" stroke="none">
<path d="M679 4392 c-171 -45 -317 -200 -349 -371 -6 -34 -10 -478 -10 -1213 0 -1287 -2 -1240 66 -1355 69 -114 172 -193 293 -225 61 -16 198 -17 1872 -17 1171 -1 1825 3 1860 9 122 23 252 115 319 226 72 120 69 55 69 1355 1 742 -3 1186 -9 1220 -34 180 -199 345 -379 379 -35 6 -689 10 -1860 9 -1674 0 -1811 -1 -1872 -17z m3727 -328 c15 -11 37 -33 48 -48 20 -26 21 -43 24 -297 l3 -269 -1921 0 -1920 0 0 254 c0 264 4 292 43 335 49 53 -55 50 1889 48 l1807 -2 27 -21z m72 -1683 c-3 -739 -3 -750 -24 -777 -11 -15 -33 -37 -48 -48 l-27 -21 -1819 0 -1819 0 -27 21 c-15 11 -37 33 -48 48 -21 27 -21 38 -24 777 l-2 749 1920 0 1920 0 -2 -749z"/>
<path d="M3275 2306 c-53 -32 -77 -76 -77 -136 0 -61 27 -108 81 -138 40 -23 42 -23 410 -20 357 3 371 4 398 24 98 73 98 195 0 268 -28 20 -41 21 -400 24 l-372 2 -40 -24z"/>
</g>
</svg>