<svg xmlns="http://www.w3.org/2000/svg" version="1.1" xmlns:xlink="http://www.w3.org/1999/xlink" width="512" height="512" x="0" y="0" viewBox="0 0 32 32" style="enable-background:new 0 0 512 512" xml:space="preserve" class=""><g><path d="M23.5 30c-1.93 0-3.5-1.57-3.5-3.5V13.367a6.468 6.468 0 0 1-3-5.473 6.474 6.474 0 0 1 3.544-5.785A1.002 1.002 0 0 1 22 3v4.323l1.5.6 1.5-.6V3a1.002 1.002 0 0 1 1.456-.891A6.476 6.476 0 0 1 30 7.895a6.471 6.471 0 0 1-3 5.473V26.5c0 1.93-1.57 3.5-3.5 3.5zM20 5.066c-.637.785-1 1.775-1 2.828 0 1.694.941 3.229 2.456 4.005a1 1 0 0 1 .544.89V26.5c0 .827.673 1.5 1.5 1.5s1.5-.673 1.5-1.5V12.789a1 1 0 0 1 .544-.89A4.484 4.484 0 0 0 28 7.895a4.476 4.476 0 0 0-1-2.828V8c0 .409-.249.776-.628.929l-2.5 1a.994.994 0 0 1-.743 0l-2.5-1A1.002 1.002 0 0 1 20 8z" fill="#6588a6" opacity="1" data-original="#000000" class=""></path><path d="M17.074 30h-2.147a2.008 2.008 0 0 1-1.994-1.846l-.126-1.635a10.91 10.91 0 0 1-1.985-.824l-1.246 1.067a2.008 2.008 0 0 1-2.715-.103l-1.52-1.521a2.01 2.01 0 0 1-.104-2.716l1.067-1.245a10.91 10.91 0 0 1-.824-1.985l-1.634-.125A2.007 2.007 0 0 1 2 17.074v-2.148c0-1.039.811-1.915 1.847-1.994l1.634-.125c.208-.687.484-1.351.824-1.985L5.237 9.575a2.009 2.009 0 0 1 .105-2.716L6.86 5.34a2.009 2.009 0 0 1 2.716-.104l1.246 1.067a10.91 10.91 0 0 1 1.985-.824l.126-1.635A2.008 2.008 0 0 1 14.926 2H16a1 1 0 1 1 0 2h-1.074l-.18 2.341a1 1 0 0 1-.772.897 8.9 8.9 0 0 0-2.734 1.135.995.995 0 0 1-1.181-.089L8.274 6.755l-1.518 1.52 1.529 1.784c.285.332.32.811.088 1.181a8.946 8.946 0 0 0-1.135 2.734.999.999 0 0 1-.898.772l-2.34.18v2.148l2.34.18a1 1 0 0 1 .898.772 8.9 8.9 0 0 0 1.135 2.734 1 1 0 0 1-.088 1.181l-1.529 1.784 1.519 1.52 1.784-1.529a.998.998 0 0 1 1.181-.089c.848.53 1.768.912 2.734 1.135a1 1 0 0 1 .772.897l.18 2.341h2.147a1 1 0 1 1 1.994.154A2.008 2.008 0 0 1 17.074 30z" fill="#6588a6" opacity="1" data-original="#000000" class=""></path><path d="M9 16a6.974 6.974 0 0 1 5.835-6.903.995.995 0 0 1 1.151.821 1 1 0 0 1-.821 1.151A4.982 4.982 0 0 0 11 16c0 3.453 3.43 5.861 6.667 4.716a1 1 0 0 1 .668 1.884C13.782 24.211 9 20.816 9 16z" fill="#6588a6" opacity="1" data-original="#000000" class=""></path></g></svg>