<svg xmlns="http://www.w3.org/2000/svg" version="1.1" xmlns:xlink="http://www.w3.org/1999/xlink" width="512" height="512" x="0" y="0" viewBox="0 0 64 64" style="enable-background:new 0 0 512 512" xml:space="preserve" class=""><g><path d="M61 2H25a1 1 0 0 0-1 1v6h2V4h34v56H26v-6h7a3 3 0 0 0 3-3V35a3 3 0 0 0-3-3h-7v-9h-2v9H5a3 3 0 0 0-3 3v16a3 3 0 0 0 3 3h19v7a1 1 0 0 0 1 1h36a1 1 0 0 0 1-1V3a1 1 0 0 0-1-1ZM34 42H4v-2h30ZM5 34h28a1 1 0 0 1 1 1v3H4v-3a1 1 0 0 1 1-1ZM4 51v-7h30v7a1 1 0 0 1-1 1H5a1 1 0 0 1-1-1Z" fill="#6588a6" opacity="1" data-original="#000000" class=""></path><path d="M48 35v8a1 1 0 0 0 1 1h8a1 1 0 0 0 1-1V31a5 5 0 0 0-10 0h2a3 3 0 0 1 6 0v3h-7a1 1 0 0 0-1 1Zm2 1h6v6h-6Z" fill="#6588a6" opacity="1" data-original="#000000" class=""></path><circle cx="53" cy="31" r="2" fill="#6588a6" opacity="1" data-original="#000000" class=""></circle><path d="M49 8H37a1 1 0 0 0-1 1v4a1 1 0 0 0 1 1h12a1 1 0 0 0 1-1V9a1 1 0 0 0-1-1Zm-1 4H38v-2h10ZM19 12a12.948 12.948 0 0 1 9.194 3.809l1.412-1.417a15 15 0 0 0-21.212 0l1.412 1.417A12.948 12.948 0 0 1 19 12Z" fill="#6588a6" opacity="1" data-original="#000000" class=""></path><path d="M26.777 17.223a10.994 10.994 0 0 0-15.554 0l1.414 1.414a9 9 0 0 1 12.726 0Z" fill="#6588a6" opacity="1" data-original="#000000" class=""></path><path d="M23.95 20.056a6.987 6.987 0 0 0-9.9 0l1.42 1.408a4.988 4.988 0 0 1 7.06 0ZM16 25a3 3 0 1 0 3-3 3 3 0 0 0-3 3Zm4 0a1 1 0 1 1-1-1 1 1 0 0 1 1 1Z" fill="#6588a6" opacity="1" data-original="#000000" class=""></path></g></svg>